<svg xmlns="http://www.w3.org/2000/svg" width="1200" height="900" viewBox="0 0 1200 900" role="img" aria-label="O Meu Irmão Tem um Ritmo de Estrela">
  <defs>
    <linearGradient id="bg" x1="0" y1="0" x2="1" y2="1">
      <stop offset="0" stop-color="#f5ecfb"/>
      <stop offset="1" stop-color="#fff8ea"/>
    </linearGradient>
    <filter id="shadow" x="-20%" y="-20%" width="140%" height="140%">
      <feDropShadow dx="0" dy="24" stdDeviation="26" flood-color="#33251c" flood-opacity="0.16"/>
    </filter>
  </defs>
  <rect width="1200" height="900" fill="url(#bg)"/>
  <circle cx="1030" cy="130" r="150" fill="#9477b8" opacity="0.18"/>
  <circle cx="130" cy="760" r="190" fill="#d8a65d" opacity="0.18"/>
  <g filter="url(#shadow)">
    <rect x="330" y="110" width="540" height="680" rx="34" fill="#fffdf7" stroke="#f0dfbf" stroke-width="10"/>
    <rect x="370" y="155" width="460" height="235" rx="28" fill="#9477b8" opacity="0.24"/>
    <path d="M420 335 C500 240 610 420 705 270 C745 330 785 350 820 320 L820 390 L420 390 Z" fill="#9477b8" opacity="0.48"/>
    <rect x="405" y="470" width="390" height="16" rx="8" fill="#d8a65d" opacity="0.55"/>
    <rect x="405" y="510" width="330" height="16" rx="8" fill="#d8a65d" opacity="0.38"/>
  </g>
  <text x="600" y="610" text-anchor="middle" font-family="Georgia, serif" font-size="54" font-weight="700" fill="#33251c">
    <tspan x="600" dy="0">O Meu Irmão Tem um Ritmo de Estrela</tspan>
  </text>
  <text x="600" y="690" text-anchor="middle" font-family="Arial, sans-serif" font-size="30" font-weight="700" fill="#6b5442">Ritmos diferentes</text>
</svg>